<?xml version="1.0" standalone="no"?>
<!DOCTYPE svg PUBLIC "-//W3C//DTD SVG 20010904//EN"
 "http://www.w3.org/TR/2001/REC-SVG-20010904/DTD/svg10.dtd">
<svg version="1.0" xmlns="http://www.w3.org/2000/svg"
 width="1024.000000pt" height="1024.000000pt" viewBox="0 0 1024.000000 1024.000000"
 preserveAspectRatio="xMidYMid meet">
<metadata>
Created by potrace 1.14, written by Peter Selinger 2001-2017
</metadata>
<g transform="translate(0.000000,1024.000000) scale(0.100000,-0.100000)"
fill="#000000" stroke="none">
<path d="M0 5120 l0 -5120 5120 0 5120 0 0 5120 0 5120 -5120 0 -5120 0 0
-5120z m4744 2319 c133 -23 206 -92 226 -211 11 -71 6 -150 -31 -528 -23 -237
-22 -279 12 -665 12 -126 19 -260 16 -296 -13 -157 -97 -233 -257 -232 -112 1
-180 43 -221 137 -32 73 -36 234 -14 521 25 313 25 482 1 560 -42 141 -121
219 -272 271 -74 26 -92 28 -291 32 -358 7 -480 -33 -560 -185 -76 -144 -82
-269 -90 -1859 -5 -1165 -5 -1268 11 -1357 20 -110 58 -196 110 -248 78 -79
175 -100 353 -75 65 9 151 16 190 16 63 0 76 -3 119 -32 64 -44 94 -101 94
-182 -1 -139 -80 -210 -248 -222 -58 -4 -138 3 -332 31 -432 62 -733 61 -1194
-6 -306 -45 -417 -33 -493 54 -91 104 -60 296 55 344 45 19 150 18 300 -3 96
-13 135 -14 182 -6 143 26 219 104 265 272 16 58 18 149 26 858 11 992 -2
2223 -23 2297 -48 162 -157 257 -335 291 -105 20 -400 19 -500 -2 -176 -36
-282 -136 -324 -304 -20 -81 -18 -353 5 -540 24 -202 19 -403 -13 -503 -40
-123 -113 -180 -232 -180 -82 0 -153 31 -187 82 -57 87 -63 187 -36 625 18
288 15 510 -11 816 -21 243 -9 309 68 377 55 48 99 56 277 50 1322 -48 2143
-50 2813 -8 352 22 461 24 541 10z m3439 -1184 c234 -31 397 -32 645 -4 103
12 250 22 328 23 138 1 142 0 200 -29 80 -42 107 -89 107 -190 -1 -181 -109
-235 -368 -185 -40 7 -84 10 -100 6 -46 -11 -125 -102 -172 -197 -22 -46 -266
-647 -542 -1336 -542 -1355 -591 -1472 -721 -1729 -322 -632 -668 -944 -1158
-1044 -411 -83 -813 15 -1062 260 -141 139 -198 279 -187 460 7 110 28 175 81
252 86 127 204 184 368 176 73 -3 105 -10 149 -30 65 -30 130 -93 161 -157 28
-58 31 -176 5 -243 -21 -54 -87 -120 -140 -138 -34 -13 -35 -14 -20 -37 24
-36 91 -79 164 -104 92 -33 317 -33 434 -1 325 90 616 371 691 667 29 114 24
238 -14 376 -46 170 -76 249 -472 1249 -199 503 -400 1014 -446 1135 -115 298
-165 384 -247 424 -54 26 -80 26 -231 0 -135 -23 -196 -21 -260 11 -63 30 -90
78 -94 166 -11 215 141 276 553 223 237 -30 487 -30 842 1 358 31 433 20 507
-73 29 -37 31 -44 31 -125 0 -102 -16 -139 -74 -178 -63 -41 -148 -51 -269
-31 -208 35 -255 19 -253 -85 0 -30 9 -80 19 -113 25 -82 775 -2289 779 -2294
2 -2 5 -2 8 1 3 3 195 522 427 1154 369 1007 421 1158 426 1219 4 66 3 72 -23
97 -43 43 -63 45 -360 22 -97 -7 -153 6 -200 47 -40 36 -55 80 -55 164 1 128
65 195 210 215 65 9 86 8 333 -25z"/>
</g>
</svg>
